<svg width="56" height="56" viewBox="0 0 56 56" fill="none" xmlns="http://www.w3.org/2000/svg">
<path d="M28 18.6667V28M28 37.3333H28.0233M7 18.53V37.47C7 38.2695 7 38.6692 7.1178 39.0257C7.22201 39.3411 7.39237 39.6307 7.61748 39.8749C7.87193 40.1511 8.22138 40.3452 8.92027 40.7335L26.1869 50.3261C26.8487 50.6937 27.1795 50.8775 27.5299 50.9496C27.8401 51.0134 28.1599 51.0134 28.4701 50.9496C28.8205 50.8775 29.1513 50.6937 29.8131 50.3261L47.0797 40.7335C47.7786 40.3452 48.1281 40.1511 48.3825 39.8749C48.6076 39.6307 48.778 39.3411 48.8822 39.0257C49 38.6692 49 38.2695 49 37.47V18.53C49 17.7305 49 17.3308 48.8822 16.9743C48.778 16.6588 48.6076 16.3693 48.3825 16.125C48.1281 15.8489 47.7786 15.6548 47.0797 15.2665L29.8131 5.67392C29.1513 5.30628 28.8205 5.12247 28.4701 5.0504C28.1599 4.98662 27.8401 4.98662 27.5299 5.0504C27.1795 5.12247 26.8487 5.30628 26.1869 5.67392L8.92027 15.2665C8.22138 15.6548 7.87193 15.8489 7.61748 16.125C7.39237 16.3693 7.22201 16.6588 7.1178 16.9743C7 17.3308 7 17.7305 7 18.53Z" stroke="#D21F3C" stroke-width="4.66667" stroke-linecap="round" stroke-linejoin="round"/>
</svg>
