<svg width="9" height="12" viewBox="0 0 9 12" fill="none" xmlns="http://www.w3.org/2000/svg">
<path d="M0.219828 4.53007C0.360453 4.67052 0.551078 4.74941 0.749828 4.74941C0.948579 4.74941 1.1392 4.67052 1.27983 4.53007L3.99983 1.81007L6.71983 4.53007C6.78849 4.60376 6.87129 4.66286 6.96329 4.70385C7.05529 4.74485 7.1546 4.76689 7.25531 4.76866C7.35601 4.77044 7.45604 4.75192 7.54943 4.7142C7.64281 4.67647 7.72765 4.62033 7.79887 4.54911C7.87009 4.47789 7.92623 4.39306 7.96395 4.29967C8.00167 4.20628 8.0202 4.10625 8.01842 4.00555C8.01664 3.90485 7.9946 3.80553 7.95361 3.71353C7.91262 3.62154 7.85351 3.53873 7.77983 3.47007L4.52983 0.220073C4.3892 0.079622 4.19858 0.000732422 3.99983 0.000732422C3.80108 0.000732422 3.61045 0.079622 3.46983 0.220073L0.219828 3.47007C0.0793777 3.6107 0.000488281 3.80132 0.000488281 4.00007C0.000488281 4.19882 0.0793777 4.38945 0.219828 4.53007ZM0.219828 7.47007C0.360453 7.32962 0.551078 7.25073 0.749828 7.25073C0.948579 7.25073 1.1392 7.32962 1.27983 7.47007L3.99983 10.1901L6.71983 7.47007C6.78849 7.39639 6.87129 7.33728 6.96329 7.29629C7.05529 7.2553 7.1546 7.23326 7.25531 7.23148C7.35601 7.2297 7.45604 7.24823 7.54943 7.28595C7.64281 7.32367 7.72765 7.37982 7.79887 7.45103C7.87009 7.52225 7.92623 7.60709 7.96395 7.70047C8.00167 7.79386 8.0202 7.89389 8.01842 7.99459C8.01664 8.0953 7.9946 8.19461 7.95361 8.28661C7.91262 8.37861 7.85351 8.46141 7.77983 8.53007L4.52983 11.7801C4.3892 11.9205 4.19858 11.9994 3.99983 11.9994C3.80108 11.9994 3.61045 11.9205 3.46983 11.7801L0.219828 8.53007C0.0793777 8.38945 0.000488281 8.19882 0.000488281 8.00007C0.000488281 7.80132 0.0793777 7.6107 0.219828 7.47007Z" fill="#828282"/>
</svg>
