<svg width="30" height="30" viewBox="0 0 30 30" fill="none" xmlns="http://www.w3.org/2000/svg">
<path d="M7.00033 25.7828H10.4807C10.9345 25.7828 11.3855 25.8368 11.8254 25.9448L15.5028 26.8384C16.3008 27.0328 17.132 27.0517 17.9383 26.8951L22.0043 26.1041C23.0784 25.8949 24.0664 25.3805 24.8408 24.6273L27.7175 21.8289C28.539 21.0311 28.539 19.7365 27.7175 18.9374C26.9779 18.2179 25.8066 18.1369 24.9698 18.747L21.6171 21.1931C21.137 21.5441 20.5527 21.733 19.9519 21.733H16.7143L18.7751 21.733C19.9366 21.733 20.8775 20.8177 20.8775 19.6878V19.2788C20.8775 18.3406 20.2211 17.5226 19.2858 17.2958L16.1051 16.5223C15.5875 16.3967 15.0574 16.3333 14.5245 16.3333C13.2381 16.3333 10.9095 17.3984 10.9095 17.3984L7.00033 19.0331M1.66699 18.4666L1.66699 26.1999C1.66699 26.9467 1.66699 27.32 1.81232 27.6053C1.94015 27.8561 2.14412 28.0601 2.395 28.1879C2.68022 28.3333 3.05359 28.3333 3.80032 28.3333H4.86699C5.61373 28.3333 5.9871 28.3333 6.27231 28.188C6.5232 28.0601 6.72717 27.8561 6.855 27.6053C7.00033 27.32 7.00033 26.9467 7.00033 26.1999V18.4666C7.00033 17.7199 7.00033 17.3465 6.855 17.0613C6.72717 16.8104 6.5232 16.6064 6.27231 16.4786C5.9871 16.3333 5.61373 16.3333 4.86699 16.3333H3.80033C3.05359 16.3333 2.68022 16.3333 2.39501 16.4786C2.14412 16.6064 1.94015 16.8104 1.81232 17.0613C1.66699 17.3465 1.66699 17.7199 1.66699 18.4666ZM21.9222 3.78961C21.1264 2.12447 19.2918 1.24232 17.5076 2.09377C15.7234 2.94522 14.9633 4.96445 15.7103 6.73704C16.1719 7.83255 17.4947 9.95994 18.4378 11.4253C18.7863 11.9668 18.9605 12.2375 19.215 12.3958C19.4333 12.5317 19.7065 12.6049 19.9635 12.5964C20.2631 12.5865 20.5494 12.4392 21.1219 12.1445C22.6713 11.347 24.8805 10.166 25.8281 9.44811C27.3613 8.2865 27.7411 6.15138 26.5932 4.52826C25.4453 2.90515 23.4439 2.74544 21.9222 3.78961Z" stroke="#D21F3C" stroke-width="2.66667" stroke-linecap="round" stroke-linejoin="round"/>
</svg>
